<?xml version="1.0" encoding="utf-8"?>
<!-- Generator: Adobe Illustrator 15.0.0, SVG Export Plug-In . SVG Version: 6.00 Build 0)  -->
<!DOCTYPE svg PUBLIC "-//W3C//DTD SVG 1.1//EN" "http://www.w3.org/Graphics/SVG/1.1/DTD/svg11.dtd">
<svg version="1.1" id="Ebene_1" xmlns="http://www.w3.org/2000/svg" xmlns:xlink="http://www.w3.org/1999/xlink" x="0px" y="0px"
	 width="434.274px" height="201.532px" viewBox="0 0 434.274 201.532" enable-background="new 0 0 434.274 201.532"
	 xml:space="preserve">
<path fill="#333333" d="M76.613,10.87C58.171,22.928,36.958,46.082,45.021,87.004c-24.909,6.866-43.453,29.232-43.453,56.278
	c0,32.18,26.076,58.25,58.25,58.25h175.64c32.169,0,58.25-26.07,58.25-58.25c0-26.551-16.205-47.84-42.084-55.929
	c2.245-12.02,1.192-32.688-18.588-47.111c-11.031-8.044-34.146-15.577-56.474,1.718C149.923-10.723,95.854-1.721,76.613,10.87z"/>
<g display="none">
	<path display="inline" fill="#808080" d="M114.011,2.197c12.298,0,23.63,2.894,33.681,8.601
		c12.028,6.829,21.792,17.54,29.021,31.834c0.135,0.267,0.381,0.458,0.672,0.524c0.073,0.017,0.147,0.024,0.22,0.024
		c0.22,0,0.436-0.072,0.612-0.209c8.85-6.854,18.511-10.33,28.715-10.329c9.422,0,19.464,3.225,26.863,8.625
		c8.67,6.319,14.483,14.412,17.277,24.053c2.744,9.467,1.815,18.044,1.018,22.314c-0.093,0.498,0.201,0.987,0.685,1.138
		c25.666,8.022,41.609,29.203,41.609,55.277c0,31.742-25.823,57.565-57.564,57.565H60.231c-31.741,0-57.564-25.824-57.564-57.565
		c0-12.925,4.232-25.124,12.238-35.279c7.71-9.78,18.619-17.001,30.715-20.333c0.504-0.139,0.817-0.644,0.715-1.158
		C38.396,46.984,58.99,23.97,77.664,11.759C84.728,7.136,97.987,2.197,114.011,2.197 M114.011,1.197
		c-15.294,0-29.004,4.562-36.895,9.725C58.574,23.046,37.247,46.324,45.354,87.475c-25.043,6.897-43.688,29.385-43.688,56.576
		c0,32.355,26.217,58.565,58.564,58.565h176.59c32.342,0,58.564-26.21,58.564-58.565c0-26.694-16.292-48.099-42.311-56.232
		c2.257-12.085,1.198-32.864-18.689-47.359c-6.149-4.489-16.038-8.816-27.452-8.817c-9.171,0-19.326,2.792-29.327,10.539
		C161.745,10.818,136.212,1.197,114.011,1.197L114.011,1.197z"/>
</g>
<g id="layer1" transform="translate(-221.97172,-411.62445)">
	<g id="g4455" transform="translate(174.94262,35.803336)">
		<path id="path2510-8" fill="#00A200" d="M366.827,495.811c3.021,0,5.308,2.479,6.857,7.438c3.099,9.298,5.308,13.947,6.624,13.947
			c1.008,0,1.652-1.177,2.736-2.727c21.771-34.867,79.566-66.376,81.646-67.771c1.669-1.304,3.194-1.262,5.493-1.225
			c2.48,0,6.827,2.441,7.754,3.663c1.387,2.006,2.348,1.327,3.367,8.297c-1.426,3.991-2.462,4.249-3.425,5.202
			c-35.378,24.556-66.307,42.008-91.875,81.989c-1.782,2.79-5.424,4.185-10.925,4.185c-5.577,0-8.872-0.233-9.878-0.698
			c-2.634-1.162-5.734-7.089-9.298-17.782c-4.028-11.854-6.043-19.292-6.043-22.314c0-3.254,2.711-6.392,8.135-9.413
			C361.326,496.74,364.271,495.811,366.827,495.811"/>
		<path id="path4562" fill="#0099FF" d="M164.76,509.147l25.193,7.615c-1.692,7.065-4.357,12.967-7.996,17.705
			c-3.638,4.738-8.165,8.313-13.58,10.724c-5.373,2.412-12.226,3.617-20.56,3.617c-10.111,0-18.382-1.459-24.812-4.378
			c-6.388-2.961-11.909-8.144-16.562-15.547c-4.653-7.403-6.98-16.88-6.98-28.429c0-15.4,4.083-27.225,12.248-35.474
			c8.207-8.292,19.799-12.438,34.775-12.438c11.719,0,20.92,2.369,27.604,7.107c6.727,4.738,11.719,12.015,14.976,21.83
			l-25.383,5.648c-0.888-2.834-1.819-4.907-2.792-6.219c-1.608-2.2-3.575-3.892-5.902-5.077c-2.327-1.185-4.928-1.777-7.805-1.777
			c-6.515,0-11.507,2.623-14.976,7.869c-2.623,3.892-3.935,10.005-3.935,18.34c0,10.322,1.565,17.409,4.696,21.258
			c3.131,3.808,7.531,5.711,13.2,5.711c5.5,0,9.646-1.544,12.438-4.632C161.439,519.512,163.491,515.028,164.76,509.147"/>
		<path id="path4565" fill="#FF8000" d="M194.668,455.778h47.784c10.407,0,18.191,2.475,23.353,7.424
			c5.204,4.95,7.805,11.994,7.805,21.132c0,9.392-2.834,16.732-8.503,22.021c-5.627,5.288-14.236,7.933-25.828,7.933h-15.738v34.521
			h-28.874V455.778 M223.541,495.439h7.044c5.542,0,9.434-0.952,11.676-2.855c2.242-1.946,3.363-4.421,3.363-7.425
			c0-2.919-0.973-5.394-2.919-7.424c-1.946-2.031-5.605-3.046-10.979-3.046h-8.186V495.439"/>
		<path id="path4568" fill="#7C877E" d="M322.801,533.451h-32.745l-4.505,15.357H256.17l34.965-93.03h31.349l34.965,93.03H327.37
			L322.801,533.451 M316.772,513.335l-10.28-33.443l-10.217,33.443H316.772"/>
	</g>
</g>
</svg>
