<?xml version="1.0" encoding="UTF-8" standalone="no"?>
<!-- Created with Inkscape (http://www.inkscape.org/) -->

<svg
   xmlns:dc="http://purl.org/dc/elements/1.1/"
   xmlns:cc="http://creativecommons.org/ns#"
   xmlns:rdf="http://www.w3.org/1999/02/22-rdf-syntax-ns#"
   xmlns:svg="http://www.w3.org/2000/svg"
   xmlns="http://www.w3.org/2000/svg"
   version="1.1"
   width="452.79611"
   height="240.51378"
   viewBox="0 0 452.79613 240.51378"
   id="Ebene_1"
   xml:space="preserve"><metadata
     id="metadata19"><rdf:RDF><cc:Work
         rdf:about=""><dc:format>image/svg+xml</dc:format><dc:type
           rdf:resource="http://purl.org/dc/dcmitype/StillImage" /><dc:title></dc:title></cc:Work></rdf:RDF></metadata><defs
     id="defs17"><filter
       color-interpolation-filters="sRGB"
       id="filter4387"><feGaussianBlur
         id="feGaussianBlur4389"
         stdDeviation="6.1559417" /></filter></defs><path
     d="m 95.134222,29.762564 c -18.442,12.058 -39.655,35.212 -31.592,76.133996 -24.909,6.866 -43.453,29.232 -43.453,56.278 0,32.18 26.076,58.25 58.25,58.25 H 253.97922 c 32.169,0 58.25,-26.07 58.25,-58.25 0,-26.551 -16.205,-47.84 -42.084,-55.929 2.245,-12.019996 1.192,-32.687996 -18.588,-47.110996 -11.031,-8.044 -34.146,-15.577 -56.474,1.718 -26.639,-52.6830003 -80.708,-43.681 -99.948998,-31.09 z"
     id="path3"
     style="fill:none;stroke:#0099ff;stroke-width:10.62992191;stroke-linejoin:miter;stroke-miterlimit:4;stroke-opacity:1;stroke-dasharray:none;filter:url(#filter4387)" /><g
     transform="translate(18.521222,18.892564)"
     id="g5"
     style="display:none"><path
       d="m 114.011,2.197 c 12.298,0 23.63,2.894 33.681,8.601 12.028,6.829 21.792,17.54 29.021,31.834 0.135,0.267 0.381,0.458 0.672,0.524 0.073,0.017 0.147,0.024 0.22,0.024 0.22,0 0.436,-0.072 0.612,-0.209 8.85,-6.854 18.511,-10.33 28.715,-10.329 9.422,0 19.464,3.225 26.863,8.625 8.67,6.319 14.483,14.412 17.277,24.053 2.744,9.467 1.815,18.044 1.018,22.314 -0.093,0.498 0.201,0.987 0.685,1.138 25.666,8.022 41.609,29.203 41.609,55.277 0,31.742 -25.823,57.565 -57.564,57.565 H 60.231 c -31.741,0 -57.564,-25.824 -57.564,-57.565 0,-12.925 4.232,-25.124 12.238,-35.279 7.71,-9.78 18.619,-17.001 30.715,-20.333 0.504,-0.139 0.817,-0.644 0.715,-1.158 C 38.396,46.984 58.99,23.97 77.664,11.759 84.728,7.136 97.987,2.197 114.011,2.197 m 0,-1 C 98.717,1.197 85.007,5.759 77.116,10.922 58.574,23.046 37.247,46.324 45.354,87.475 20.311,94.372 1.666,116.86 1.666,144.051 c 0,32.355 26.217,58.565 58.564,58.565 h 176.59 c 32.342,0 58.564,-26.21 58.564,-58.565 0,-26.694 -16.292,-48.099 -42.311,-56.232 2.257,-12.085 1.198,-32.864 -18.689,-47.359 -6.149,-4.489 -16.038,-8.816 -27.452,-8.817 -9.171,0 -19.326,2.792 -29.327,10.539 C 161.745,10.818 136.212,1.197 114.011,1.197 l 0,0 z"
       id="path7"
       style="fill:#808080;display:inline" /></g><path
     d="m 338.31912,138.88245 c 3.021,0 5.308,2.479 6.857,7.438 3.099,9.298 5.308,13.947 6.624,13.947 1.008,0 1.652,-1.177 2.736,-2.727 21.771,-34.867 79.566,-66.376 81.646,-67.771 1.669,-1.304 3.194,-1.262 5.493,-1.225 2.48,0 6.827,2.441 7.754,3.663 1.387,2.006 2.348,1.327 3.367,8.297 -1.426,3.991 -2.462,4.249 -3.425,5.202 -35.378,24.556 -66.307,42.008 -91.875,81.989 -1.782,2.79 -5.424,4.185 -10.925,4.185 -5.577,0 -8.872,-0.233 -9.878,-0.698 -2.634,-1.162 -5.734,-7.089 -9.298,-17.782 -4.028,-11.854 -6.043,-19.292 -6.043,-22.314 0,-3.254 2.711,-6.392 8.135,-9.413 3.331,-1.862 6.276,-2.791 8.832,-2.791"
     id="path2510-8"
     style="fill:#00a200" /><path
     d="m 136.25212,152.21845 25.193,7.615 c -1.692,7.065 -4.357,12.967 -7.996,17.705 -3.638,4.738 -8.165,8.313 -13.58,10.724 -5.373,2.412 -12.226,3.617 -20.56,3.617 -10.111,0 -18.382,-1.459 -24.812,-4.378 -6.388,-2.961 -11.909,-8.144 -16.562,-15.547 -4.653,-7.403 -6.98,-16.88 -6.98,-28.429 0,-15.4 4.083,-27.225 12.248,-35.474 8.207,-8.292 19.799,-12.438 34.775,-12.438 11.719,0 20.92,2.369 27.604,7.107 6.727,4.738 11.719,12.015 14.976,21.83 l -25.383,5.648 c -0.888,-2.834 -1.819,-4.907 -2.792,-6.219 -1.608,-2.2 -3.575,-3.892 -5.902,-5.077 -2.327,-1.185 -4.928,-1.777 -7.805,-1.777 -6.515,0 -11.507,2.623 -14.976,7.869 -2.623,3.892 -3.935,10.005 -3.935,18.34 0,10.322 1.565,17.409 4.696,21.258 3.131,3.808 7.531,5.711 13.2,5.711 5.5,0 9.646,-1.544 12.438,-4.632 2.832,-3.088 4.884,-7.572 6.153,-13.453"
     id="path4562"
     style="fill:#0099ff" /><path
     d="m 166.16012,98.84945 h 47.784 c 10.407,0 18.191,2.475 23.353,7.424 5.204,4.95 7.805,11.994 7.805,21.132 0,9.392 -2.834,16.732 -8.503,22.021 -5.627,5.288 -14.236,7.933 -25.828,7.933 h -15.738 v 34.521 h -28.874 v -93.031 m 28.874,39.661 h 7.044 c 5.542,0 9.434,-0.952 11.676,-2.855 2.242,-1.946 3.363,-4.421 3.363,-7.425 0,-2.919 -0.973,-5.394 -2.919,-7.424 -1.946,-2.031 -5.605,-3.046 -10.979,-3.046 h -8.186 v 20.75"
     id="path4565"
     style="fill:#ff8000" /><path
     d="m 294.29312,176.52245 h -32.745 l -4.505,15.357 h -29.381 l 34.965,-93.03 h 31.349 l 34.965,93.03 h -30.079 l -4.569,-15.357 m -6.029,-20.116 -10.28,-33.443 -10.217,33.443 h 20.497"
     id="path4568"
     style="fill:#7c877e" /></svg>